<?xml version="1.0" encoding="UTF-8"?>
<svg xmlns="http://www.w3.org/2000/svg" viewBox="0 0 89.73 69.7">
  <defs>
    <style>
      .cls-1 {
        fill: #2f00ff;
      }

      .cls-2 {
        fill: gold;
      }

      .cls-3 {
        fill: #13bf00;
      }

      .cls-4 {
        fill: #ff00e1;
      }
    </style>
  </defs>
  <g id="Logo_The_Hard_Drive">
    <g>
      <path class="cls-1" d="M41.9,11.4c.12-.44,1.87-.58,2.31-.53.9.09,1.44.82,1.86.93.83.22.2-.73-.13-1.01-.53-.46-1.2-.65-1.89-.62-.48.02-1.94.43-2.16-.18-.1-.29-.11-3.07-.01-3.43.19-.75.9.02,1.06-.15.1-.7-1.05-1.13-1.15-1.6s-.09-2.15-.03-2.65c.1-.88.57-1.8,1.5-2.01.51.46.61,1.08,1.28,1.39-.22.41-.97.4-.96.93,1.02-.16,1.02-.88,1.9.25l.47-1.41c-.47-.05-.44.39-.55.61-.2.37-.3-.09-.43-.23-.52-.55-.21-.48-.3-.61s-.59-.12-.41-.72c1.21.43,2.33.08,3.55.53.98.37,1.5,1.29,2.51,1.7.29.8-2.09,2.58-2.34,2.33.19-1.47-.3-2.17-1.81-2.21-.79-.02-1.03.65-1.52.72-.41.06-.95-.41-1.04.22,1.15,1.27,1.65-.43,2.98-.22,1.04.16.89.92.77,1.79l-1.62.16v.42c1.61.03,2.79-.07,3.99-1.18.7-.65,1.03-1.79,2.15-1.37.98,1.12,2.03,2.37,2.71,3.65-.63.15-.8,1.31.03.78,1.18,1.03,1.57,2.36-.54,1.49.08,1.49,2.18-.21,2.26,1.22h-.77c-.12.01-.09.3-.06.36.14.32,2.42,1.21,1.64,2.29-.71.98-2.11-.05-2.69.51-.55.53-.17,1.69-.14,2.35-.07.09-1.92-.81-2.19-.81l-2.1.03-.2-.33c.24-.4.61-.74.8-1.17.07-.16.41-1.31.41-1.39l-.04-2.45c.84-.09,1.51,1.29,2.12,1.45.19.05.38.03.43-.16.07-.29-1.08-1.24-1.36-1.45-.57-.41-1.29-.86-1.74-.03-.3.55.04,1.48-.85,1.13-.3-.69.1-1.34-.72-1.82.86-.45,1.18-1.41,1.58-2.21.51-.07.97.71,1.3.8.21.06.71-.01.74.02.06.06.02,1.66.86,1.04l-.42-.28c.5-.9-.1-1.64-.05-2.59-1.02.08.18,1.4.03,1.54-.79.19-.81-.42-1.2-.69-.58-.4-1.41-.26-.66-1.46l.98.06-.09-.43c-.46-.14-.81-.25-1.18.1-.09.08-1.25,1.95-1.29,2.07-.12.39.02.87-.12,1.12-.19.33-1.38.29-1.33,1.13-.8.21-1.29-.91-1.93-1.05-.79-.16-1.36.39-2.14.29l.07.43.17.11c.61.18,1.32-.29,1.91-.12.33.09.89.93,1.48,1.04.51.1.94-.19,1.44-.14-.03.44.06,1.07.38,1.39.37.37,1,.13,1.06.62.12.88-.64,1.91-.97,2.65-.15.34-.29,1.18-.44,1.37-.37.47-1.16-.38-1.33.09-.12.33.76.25,1.06.61.18.22.78,1.97.67,2.09-.69.11-1.22-.27-1.9-.26s-1.28.46-1.82.47c-.42,0-1.14-.67-1.33-.19-.11.26.25.24.4.3.43.15.87.27,1.27.47.28.43-.39,2.65.63,2.77l-.3-1.26c.23.01,1.27.57,1.4.19s-1.15-.32-1.35-.6c-.48-1.51.77-1.55,1.95-1.44.53.05,1.24.56,1.6.03.44-.63-.89-2.78-.38-3.15,1.76-.58,3.35.41,5.02.75.95-.48-.39-1.97.26-2.53.45-.27,1.22.16,1.68.09.31-.04.64-.57,1.11-.41.19.04.71,2.05.53,2.36-1.13.48-1.78,1.73-2.67,2.46-.39.01-.67-.29-1.02-.38-.38-.09-.94-.03-1.29-.23-.26-.15-.92-1.56-1.15-1.31l.58,1.18c-1.4.64.22,2.39-.35,3.38-.62,1.07-1.83.34-2.67.59-.75.22-2.05,1.57-2.57,1.66-1.01.18-1.9-.9-2.85-1.04-.67-.1-1.35.09-2.01-.06-.25-.17-.19-1.24.02-1.45.59-.29,1.29-.5,1.93-.2.03-1.11-1.43-.28-2.11-.25l-.04-2.6c-.01-.85,3.45-.36,3.99-.15l.22-.34c-.02-.99-3.27-.4-3.85-.59-.12-.04-.38-.38-.38-.46l-.08-4.91ZM48.11,2.63c-.26-.15-.66-1.15-1.46-.92.04.44.59.53.93.82s.47,1,1.19.34c-.15-.26-.49-.13-.66-.24ZM43.76,4.98c.26-.06,1.78.19,1.68-.38-.22-.26-.88-.08-1.15-.01-.24.06-.63.02-.52.39ZM43.24,6.66c.11.15,2.02,1.12,2.23.47-.06-.51-.45-.15-.85-.25-.09-.02-2.11-1.19-1.39-.22ZM46.2,7.46l1.44.25c.41-.15.86-1.41.07-1.38.12,1.31-.64.96-1.53.73l.02.41ZM48.37,12.35c-.5.1-.59.57-1.18.58-.85.02-1.21-.81-2.64-.49-.25.06-1.51.78-1.21,1.11.68-.27.94-.69,1.74-.74,1.11-.07,2.89,1.43,3.29-.47ZM46.22,13.79c-.72-.06.9,1.35.86,1.38.7-.28-.77-1.38-.86-1.38Z"/>
      <path class="cls-4" d="M41.2,11.27c-.01.08-.15.44-.34.36-.7-.34-2.1-1-2.81-.5-.31.22-.31.47,0,.69.7-.45,1.18-.23,1.89.04.91.35,1.19.63,1.3,1.65.11.96.16,3.13.06,4.08-.12,1.24-1.36,1.44-1.89.38-.2-.4-.37-2.17-1.15-1.95-.51.14.22.84.32,1.09s.22.66.2.92c0,.1-.88,1.64-.96,1.71-.46.42-2.41.16-3.15.41-.39-.02-.37-.37-.37-.7h-.42c-.2.69.41,1.04.46,1.62.02.26-.08,1.39-.13,1.68-.08.47-.54,1.05-.9,1.34-.19.04-.68-.55-.95-.7-.61-.35-1.68-.3-2-.79-.66-1.02-.33-4.72-1.66-4.99-1.51-.31-2.25,1.85-3.2.03-.61-1.17-.33-2.66-.07-3.94.24-1.16.93-1.85,1.15-2.96.79.07.64,1.51,1.07,1.82.55.4,1.47-.29,1.84.24.17.25.79,1.94.11,1.82l.14.35,1.55.18-1.13-1.47c-.59-.84.53-1.66,1.14-2.18.31-.26.83-.43,1.11-.72.3-.31.33-.8.75-1,.18.77,1,1.61.89,2.43-.07.51-.95.72-1.32,1.08-1.07,1.07.27,1.99-.32,3.21-1.26.05-2.38-.46-3.67-.08-.35.11-.92-1.03-1.1-.8-.35.46.73,1,.96,1.15.09.06.12.32.27.37s.64-.3,1.1-.31c1.28-.01,2.23,1.06,3.22-.46,1.06.78.09.93-.44,1.64-.39.52-1.92,3.64-1.36,3.99h.41c.16-1.81,1.2-3.61,2.63-4.66l1.51.66-.1-.42c-1.15,0-3.13-2.41-3.05-3.38.05-.58,1.17-.86,1.53-1.29.88-1.07-.66-3.27-1.33-4.19,0-.66,3.05.13,3.5-.48.06-.33-.29-.21-.5-.2-.39,0-1.09.23-1.33.1-.26-.15-.03-.22.07-.35,1.24-1.66-.44-1.3-1.5-2.02-1.28-.87-.27-1.07.25-1.67.25-.29.64-1.1.91-1.19.94-.31,1.33,1.57,2.37,1.48.49-.04,2.08-1.5,2.15-1.93.1-.57-.17-1.4-.86-1.31-.01.65.78,1.34-.16,1.67l-1.08-.38c-.2.2,1.17,1.41-.18,1.55l-.93-.76.77.06c.22-.44-.85-.67-1.2-.76-.56-.15-1.1.19-.94-.74.81-1.16,1.78-.07,2.74-.39.56-.19,1.02-1.22,1.73-1.36.54-.11,2.4.26,2.46.87.04.39-.22,1.35-.25,1.83s.04.98.02,1.47l-.64-.55-.34.5c.67.19,1.14.82,1.16,1.53,0,.27-.14.49-.14.56.02,1.43.26,3.74.08,5.05ZM33.95,5.71l2.6-.04c.09,0,1.1.2,1.14.25.39,1.57.34,4.4-1.69,4.67l.07.42c1.03.64,1.56-1.02,2.02-1.24s.67.42.98-.01l-.84-.57c.32-1.17.18-2.1.08-3.28l1.2-.15.05-.43c-.38-.12-1.03.17-1.31.12-.46-.07-.68-.2-1.4-.27-.98-.1-1.75-.31-2.76.02l-.13.5ZM39.97,13.61c-.87-.12-1.42,1.14-2.05,1.27-.84.18-2.21-.59-3.1-.05v.54c1.77-.48,3.53.81,5.32.19l-.07-.42-1.34-.12c-.18-.23.82-1.1,1.15-1l.09-.42Z"/>
      <path class="cls-3" d="M58.72,21.12l-2.2.7c-.6-.66-.88-1.52-1.52-2.14-.15-.14-.21-.35-.48-.29-.29.33,1.69,1.87,1.43,2.82-.16.59-1.28.94-1.71,1.39-.53.56-.74,1.43-1.15,2.06-.32.21-.68-.19-.99-.27-.35-.09-1.01-.11-1.26-.27-.38-.25-.2-1.3-.65-1.18-.08.02-.67,1.11-.89,1.35-.41.46-2.18,1.9-2.71,2.09-.57.2-1.83-.25-1.53,1,.69-.35,1.46-.34,2.16-.67.79-.38,2.14-1.91,2.59-2.05.55-.18,2.62-.13,2.58.69s-1.11.95-1.6,1.37c-1.04.89-1.11,3.04-1.59,3.5-.73.7-2.37.02-3.24.1-1.18.1-2.52,1.18-3.67.19-.06-.52-.3-3.03.09-3.23.24-.12.26.24.31.39.12.36.33,1.93.59,1.99,1.35.3,1.94-.8,2.88-1.35.28-.16.88-.14.93-.34s-.03-.41-.24-.47c-.75-.22-1.72,1.01-2.4,1.36-.18.09-.8.44-.92.22-.13-.63-.13-1.3-.37-1.9-.22-.57-1.73-1.83-.67-2.15s2.75-.24,2.42-1.87c-.52-.12-.5.35-.76.57-.31.25-1.02.77-1.42.62-.8-.25-.85-2.04-.22-2.35.28-.14,1.24-.13,1.58-.06.86.16,1.76,1.24,2.85,1.17s2.45-2.08,3.17-1.98c.8.1.87,2.65,2.25,2.46-.32-.82-1.41-1.17-1.3-2.22l2.53.1v-.42s-1.27.02-1.27.02c-.04-.51.61-.47.69-.92.13-.75-.49-2.27-.26-2.6.63-.92,2.41,1.35,3.45.3.71-.71,1.76-3.53,2.33-.98.12.56.53,2.89.2,3.22ZM57.6,18.93c-.49-.06-.28.39-.42.61-.25.39-.76.65-.67,1.23.31.07.31-.18.44-.33.36-.4.76-.93.65-1.51ZM46.18,24.45c-.45-.1-.22.39-.33.71-.15.44-.71.6-.62,1.12.45.07.52-.62.78-.7s1.5.78,1.45.32c-.02-.24-1.5-.77-1.29-1.45Z"/>
      <path class="cls-2" d="M24.88,17.64c.21.53.69,1.34,1.29,1.46.22.04.41-.08.6-.06.23.03.41.24.74.25s1.4-.36,1.47-.32c.45,1.04.38,4.02,1.49,4.53.49.23,1.16.11,1.73.49.43.29.67.96,1.24,1.15,1.32.42,1.95-.46,3-.95.59.34,1.05.82,1.72,1.07.79.3,1.58.22,2.24.82.81-1.16-1.45-1.18-2.15-1.48s-1.33-1.32-2.17-1.05c-.27.09-2.04,1.63-2.23.88-.1-.39.47-.57.63-.76.59-.76.11-2.37.78-2.84.91-.64,2.48.14,3.15-.82.18-.26.18-.59.4-.86.58-.71.87.09,1.37.17s1.01-.43,1.15.5c.38,2.42-.82,1.51-2.54,2.07-.38-.05-.81-.81-1.46-.93-.27-.05-.88-.12-.88.33s.88.33,1.26.55c.33.19.37.6.71.69,1.14.3,2.63-1.25,2.96.94.1.69.18,2.37.18,3.08,0,1.66-2.22,2.07-3.5,1.63-.21-.07-.92-.86-.81-.02s2.15.95,2.83.8c.53-.12.83-.59,1.39-.52.46.85-2.38,2.03-2.68,1.98-.27-.05-.58-.68-.9-.77-1.02-.28-1.61.13-2.76-.71-1.81-1.33.14-1.29.99-1.89.76-.54.99-1.64.16-1.15-.06.04-.1.29-.23.39-.46.36-1.07.72-1.68.73-.69.01-1.5-.52-1.97-.51-.53,0-.94.56-1.67.43-.42-.07-1.21-.83-1.84-.82-.74.01-1.43,1.07-2.21.61-.24-.14-.25-.41-.81-.62-.69-.26-1.57.02-1.41-.89,1.09-.26,2.72.24,3.28-.89.18-.01.66,2.2,1.63,1.16-.19-.27-.56-.14-.78-.34-.34-.31-.47-1.85-.59-2.38-.15-.63-.65-1.55-.5-2.13.04-.17.56-.73.23-.95-.35-.23-.62.46-.83.64-1.1.92-2.3-.41-2.37-1.54-.02-.36.16-.72.09-1.09l.28-.07Z"/>
      <path class="cls-2" d="M33.72,27.62c.06.07.08.54.17.75.54,1.26,1.91,1.83,3.2,1.94.15.01.35-.13.53-.1.48.1.23,1.07,1.69.76.56-.12,1.76-1.14,2.13-.42.16.31.2,4.98.17,5.69-.02.31-.13,1.54-.25,1.69-.46.63-1.94-.26-2.2-.89-.49.35.56.95-.19,1.33s-2.28.25-3.09-.02c-.28,1.08,2.2.91,2.88.79.37-.07.62-.35.99-.42.69-.12,2.19-.02,1.1.79-1.8,1.35-4.62.2-6.38-.78-.32-.18-1.71-.9-1.42-1.31,1.76.42,3.53-.87,5.32-.79.03-.35-.21-.41-.5-.42-1.16-.05-3.47,1.17-4.45.9-.61-.17-.24-1.47-.05-1.51l1.19.26c.38-.34-1.54-.7-1.55-1.03l.95-1.14c1.1.12,2.07.82,3.23.58v-.56c-1.19.11-2.22-.48-3.31-.65-.8.25-1.62,2.09-2.35,2.13-.48.02-2.08-.52-2.52-.81-.3-.19-1.91-1.64-1.67-1.91.83.19,1.63,1.07,2.32.1.45.57,1.75,1.43,2.47,1.01.51-.3-.97-.43-1.07-.47-.53-.18-1.27-.91-1.35-1.47-.16-1.13,1.28-4.44,2.66-4.46.12,0,1.27.38,1.31.43ZM34.65,31.23c.32-.37-1.2-1.61-1.43-1.87s-.28-.8-.71-.76c-.31.35,1.38,2.04,1.66,2.34.14.15.21.35.48.29ZM40.82,31.13c-.52,0-.4.65-.56,1.05-.23.57-.73.53-.67,1.08.91-.07,1.33-1.34,1.23-2.12ZM33.54,32.51c.31-.42-.8-.41-.88-.44-.42-.15-.69-.64-1.24-.5-.31.28,1.4,1.04,1.65,1.05.09,0,.45-.09.47-.11ZM39.14,31.72c-.88-.13-1.94.85-1.03,1.56.36-.21.03-.45.12-.7.17-.42.91-.35.9-.86ZM39.88,34.11l-1.33-.23-.2.38,1.55.26-.02-.41ZM40.61,35.48c-.12-1.31-1.71-.39-2.46-.37-.92.02-1.9-.58-2.88.11l.08.35c1.22-.46,2.46.2,3.64-.2l.16.29-.21.97.42-.1.4-1.11.84.06Z"/>
      <path class="cls-3" d="M48.94,34.09c.17.03,1.74.77,1.77.88l-1.33,1.48c-.88.48-2.68-.05-3.6.25-.19.06-.54.5-.88.67-.31.16-2.15,1.02-2.28.9.04-.6-.71-2.11-.04-2.46.26-.13,1.33.05,1.76.05.33,0,.64-.17.97-.17.6,0,1.24.45,1.97.4.84-.06,1.61-.87.49-.79s-1.27-.09-2.18-.17c-1.21-.1-3.43.78-3.32-1.35.27-.29,1.42,1.21,1.27.47-.1-.5-.84-.79-1.22-1.03-.3-1.1.54-.54,1.09-.59.88-.08,1.8-.56,2.68-.6,1.44-.07,3.23.79,3.89-1.07.22-.61-.06-1.54.98-.96.58.32.98,1.94.67,2.55-.23.47-.87.58-.95,1.08.63-.02,1.25-.86,1.88-.87l2.88-.05c.04.26,0,.41-.12.64-.11.19-2.93,2.94-3.19,3.12-.7.49-1.27.39-2.09.4l.43.55c-1.12.06-1.84.74-2.93.89-.09.58.91-.03.85.68-1.13.16-4.32,1.48-5.25.65-.22-.19-.35-1.02-.09-1.2.62-.13,1.39-.2,1.96-.45.41-.18.87-.73,1.19-.79.54-.11,1.61.2,2.38.1,1.27-.16,1.24-.55,1.94-1.3.23-.25.8-.5.88-.81.18-.71-1.22-1.39-1.83-1.41-.11-1.05,1.45-.83,1.37-1.7-1.19-.2-1.94,1.45-2.91,1.67-.35.08-1.19-.1-1.74-.03-.3.04-1.44.28-1.06.7.11.12.66-.29.77-.29.8-.01,2.25-.17,2.95-.05ZM47.1,37.76l-.54.03c-.04.76-1.02,1.4-1.72,1.38-.5-.02-1.38-.69-1.37.05,1.54.67,3.14.24,3.62-1.46Z"/>
      <path class="cls-3" d="M57.95,27.62c.06.01.36.29.3.42l-.84,1.68c-1.26.56-2.82-.65-3.55.98.49.19.65-.41,1.19-.5.38-.07,1.71-.05,1.76.45.12,1.21-3.31,1.99-4.13,1.27-.99-.87-.75-2.23-.54-3.36-.55-.07-.29.72-.63.84l-.9-.12c-.02-1.13,1.11-1.23,1.8-1.78.41-.33.97-1.37,1.2-1.46.6-.26,1.68-.38,1.6.54l.42.09c-.6-.63.64-2.36.94-1.47.17.5.23,2.01-.47,2.14-.3.05-1.64-.39-1.08.32.79.13,2.25-.22,2.95-.05Z"/>
      <path class="cls-4" d="M32.79,3.76c-.29.79-1,.88-.5,1.87.39.76,1.24.89,1.89,1.18,1.12.51-1.2,1.12-1.47,1.5-.33.47.07,1.35-.17,1.77-.11.18-.91.46-1.17.66s-1.28,1.48-1.53,1.28c-.32-.27-.18-1.24-.72-1.19l.24.98c-.41.38-.97.29-1.48.3l-.23-1.54c.34-.84,2.59-.43,2.57-1.58-.41.13-.67.37-1.11.51-.26.08-1.87.46-1.96.38-.04-.23.49-1.48.56-1.53.16-.1,1.11-.01,1.44-.05.26-.03.49-.28.71-.28.39,0,.63.65,1.4.53.47-.07,2.3-1.5,1.67-1.57-.66-.13-1.29.96-1.82,1.02-.41.04-.5-.36-.84-.41-.51-.08-1,.23-1.51.17-.54-.55,0-1.11.18-1.67.23-.15,1.51.32,2.19-.02.51-.25.87-1.38.12-.71-.44.4-.7.82-1.44.42-.32-.37.94-1.82,1.17-1.92.49-.21,1.28-.02,1.82-.1Z"/>
      <path class="cls-2" d="M28.2,31.47h.41c.03-1.27-2.37-2.5-1.39-3.76.14-.18,1.08-.74,1.31-.81.58-.16,1.85.28,1.86.96,0,.43-1.04,1.95-1.17,2.75-.06.39.04,1.48-.17,1.63-1.13.17-3.23-1.48-3.14-2.62.04-.46.54-.65.92-.38.31.22,1.35,1.75,1.37,2.23Z"/>
      <path class="cls-3" d="M58.73,22.18c.43.34.44,2.13.36,2.68-.11.77-1.19,1.43-1.93,1.51.03-.46-.2-1.96-.69-2.08-.52-.12-1.64,1.3-2.41,1-.18-.17.48-1.19.67-1.35.32-.27.67-.25.97-.44.72-.45,1.85-2.26,3.03-1.33Z"/>
      <path class="cls-2" d="M24.3,24.66c-.41-.38,1.02-.29,1.18-.31.55-.09,1.44-.57.84-1.12-.09,0-.42,1.09-1.57.62-.89-.36-.69-2.54-.16-3.25,1.21,1.06,2.54.39,2.76,2.28.25,2.16-1.43,1.85-3.04,1.78Z"/>
      <path class="cls-2" d="M26.56,27.32c.29.46-.79,1.87-1.07,1.68-.3-.71-1-2.06.17-2.25l.9.58Z"/>
      <path class="cls-4" d="M31.67,3.36c-.36-.34,1.1-1.08,1.35-1.12.35-.06.56.02.73.34-.08,1.07-1.34.71-2.08.78Z"/>
      <path class="cls-2" d="M32.47,36.72c-.14.09-.51.03-.68-.04l-1.42-1.16,2.12.31c.25.12.09.83-.01.9Z"/>
      <path class="cls-3" d="M59.12,26.06c.08.07-.32,1.19-.61,1.24l-.58-.66,1.19-.58Z"/>
      <path class="cls-4" d="M37.65.17c.05.52-.48.73-.88.88-.16.06-.32.16-.37-.09-.07-.35.89-.94,1.25-.79Z"/>
      <path class="cls-4" d="M28.83,18.56l-1.54.31c-.04-.51.89-.52,1.21-.7l.33.39Z"/>
    </g>
  </g>
  <g id="The_hard_drive">
    <path d="M25.6,38.61c-1.38,0-2.5,1.12-2.5,2.5s1.12,2.5,2.5,2.5,2.5-1.12,2.5-2.5-1.12-2.5-2.5-2.5ZM25.61,41.49c-.27,0-.5-.22-.5-.5s.23-.5.5-.5.5.22.5.5-.22.5-.5.5Z"/>
    <path d="M40.64,58.02c-1.38,0-2.5,1.12-2.5,2.5s1.12,2.5,2.5,2.5,2.5-1.12,2.5-2.5-1.12-2.5-2.5-2.5ZM40.65,60.9c-.27,0-.5-.22-.5-.5s.23-.5.5-.5.5.22.5.5-.22.5-.5.5Z"/>
    <path d="M5.42,58.35c-1.38,0-2.5,1.12-2.5,2.5s1.12,2.5,2.5,2.5,2.5-1.12,2.5-2.5-1.12-2.5-2.5-2.5ZM5.43,61.23c-.27,0-.5-.22-.5-.5s.23-.5.5-.5.5.22.5.5-.22.5-.5.5Z"/>
    <path d="M58.07,39.9c-1.38,0-2.5,1.12-2.5,2.5s1.12,2.5,2.5,2.5,2.5-1.12,2.5-2.5-1.12-2.5-2.5-2.5ZM58.08,42.78c-.27,0-.5-.22-.5-.5s.23-.5.5-.5.5.22.5.5-.22.5-.5.5Z"/>
    <path d="M87.23,51.59c-1.38,0-2.5,1.12-2.5,2.5s1.12,2.5,2.5,2.5,2.5-1.12,2.5-2.5-1.12-2.5-2.5-2.5ZM87.24,54.47c-.27,0-.5-.22-.5-.5s.23-.5.5-.5.5.22.5.5-.22.5-.5.5Z"/>
    <g>
      <path d="M11.21,41.23c0,.09-.05.14-.15.14-.17,0-2.86-.03-4.06-.1-.03,1.15-.06,6.06-.06,6.52,0,.54.02,1.35.06,2.43s-.16,8.09-.16,8.63c0,.09-.02.14-.06.16-.01,0-.08.02-.19.03-.27.04-.67.05-1.2.05-.59,0-1-.02-1.24-.05-.13-.02-.19-.09-.19-.21,0-.54.25-7.55.3-8.62.05-1.08.07-1.88.07-2.42,0-.36,0-5.25-.03-6.48-.91.09-3.64.14-4.18.14-.07,0-.11-.02-.11-.07,0-.06.03-.23.1-.53.07-.32.11-.51.12-.58.01-.21.03-.43.05-.64.03-.34.09-.51.16-.51,0,0,.04,0,.1,0,.74.1,3.83.14,5.27.14.41,0,1.17-.04,2.27-.13.59-.04,2.89-.07,2.9-.07.09,0,.14,0,.16.02.01.01.02.06.03.13,0,.12,0,.29-.01.51,0,.24-.01.41-.01.51,0,.11.01.28.04.5.03.22.04.39.04.5Z"/>
      <path d="M14.75,50.92v4.72c-.01.16-.08.25-.21.27-.15.02-.48.03-1,.03s-.85-.02-1.05-.05c-.15-.03-.23-.12-.23-.29,0-.39,0-.98.02-1.77.01-.79.02-1.38.02-1.77,0-.53-.27-.8-.81-.8-.18,0-.4.07-.64.22-.27.16-.4.33-.4.5v1.69c0,.22,0,.55.01.99,0,.44.01.77.01.99,0,.17-.07.26-.21.28-.14.02-.54.03-1.19.03-.37,0-.64-.02-.81-.05-.16-.04-.25-.12-.25-.24,0-.36,0-.9,0-1.62,0-.72,0-1.26,0-1.62,0-1.49-.02-2.72-.05-3.7-.01-.34-.02-.68-.03-1.03-.02-.4-.06-.74-.12-1.02-.01-.06-.02-.1-.02-.13,0-.07.03-.11.1-.14.14-.04.35-.07.62-.08.36-.01.58-.02.64-.03l1.24-.14c.07,0,.11.05.11.14,0,.15,0,.34-.03.59-.02.29-.03.49-.03.59-.03,1.03-.04,1.84-.04,2.44,0,.09.02.14.07.14,0,0,.13-.08.35-.24.26-.19.52-.33.76-.44.36-.16.71-.24,1.05-.24.58,0,1.07.15,1.46.46.42.33.64.78.64,1.35Z"/>
      <path d="M21.42,52.16c0,.46-.15.72-.44.79-.05,0-.52.06-1.42.15-.54.06-1.34.13-2.41.21.06.3.26.52.58.68.26.13.56.19.9.19.41,0,.81-.11,1.22-.33.17-.11.35-.22.52-.33.1.05.26.28.48.7.23.42.34.69.34.8,0,.03-.03.08-.1.16-.56.6-1.42.9-2.59.9-1.08,0-1.96-.32-2.62-.95-.68-.64-1.03-1.5-1.03-2.58s.31-1.91.92-2.58c.63-.69,1.46-1.04,2.5-1.04.88,0,1.62.32,2.23.96.61.64.92,1.4.92,2.28ZM19.03,51.74c0-.28-.1-.53-.3-.75-.2-.21-.44-.32-.72-.32s-.52.12-.71.36c-.17.22-.26.49-.26.79,0,.12.06.18.19.18.34,0,.86-.05,1.57-.16.15-.02.23-.06.23-.11Z"/>
      <path d="M24.29,42.58c0-.07.03-.11.1-.14.14-.04.35-.07.62-.08.36-.01.58-.02.64-.03,0,0,1.35-.1,1.35,0,0,.15-.13,4.28-.15,4.53-.02.29-.03.49-.03.59-.03,1.03-.04,1.84-.04,2.44,0,.09.02.14.07.14,0,0,.13-.08.35-.24.26-.19.52-.33.76-.44.36-.16.71-.24,1.05-.24.58,0,1.07.15,1.46.46.42.33.64.78.64,1.35v4.72c-.01.16-.08.25-.21.27-.15.02-.48.03-1,.03s-.85-.02-1.05-.05c-.15-.03-.23-.12-.23-.29,0-.39,0-.98.02-1.77.01-.79.02-1.38.02-1.77,0-.53-.27-.8-.81-.8-.18,0-.4.07-.64.22-.27.16-.4.33-.4.5v1.69c0,.22,0,.55.01.99,0,.44.01.77.01.99,0,.17-.07.26-.21.28-.14.02-.54.03-1.19.03-.37,0-.64-.02-.81-.05-.16-.04-.25-.12-.25-.24,0-.36,0-.9,0-1.62,0-.72,0-1.26,0-1.62,0-1.49-.02-2.72-.05-3.7-.01-.34-.02-.68-.03-1.03"/>
      <path d="M38.38,52.45c0,.35.02.87.06,1.57.04.69.06,1.21.06,1.56,0,.18-.08.28-.24.29-.56.04-1.21.06-1.94.06-.09,0-.14-.13-.17-.39-.03-.26-.06-.4-.11-.4-.04.02-.08.06-.14.12-.51.52-1.06.77-1.64.77-.89,0-1.62-.35-2.21-1.05-.55-.66-.83-1.44-.83-2.35,0-1.05.28-1.9.85-2.54.59-.67,1.4-1,2.43-1,.72,0,1.28.25,1.7.75.02.02.03.03.05.03.04,0,.09-.11.14-.33.05-.22.12-.33.19-.33.17,0,.49.05.96.14.45.09.77.17.97.23.07.03.1.06.1.11,0,.02,0,.07-.02.14-.15.83-.22,1.7-.22,2.62ZM36.18,52.49c0-.39-.12-.71-.37-.96s-.56-.38-.95-.38-.71.13-.95.38c-.24.25-.36.57-.36.96,0,.37.13.69.38.95.26.26.56.4.93.4.39,0,.7-.13.95-.38s.37-.58.37-.97Z"/>
      <path d="M43.57,51.61c0,.18-.1.27-.29.27-.09,0-.21,0-.38-.02-.17-.01-.29-.02-.37-.02-.38,0-.64.06-.77.18-.14.12-.21.36-.21.72,0,.2,0,.49.01.89,0,.4.01.7.01.89,0,.13,0,.33.03.59.02.26.07,3.4.07,3.52,0,.11-.08.17-.23.18-.22.02-.55.03-1,.03s-.78-.01-1.04-.04c-.15-.02-.23-.09-.23-.23,0-.36-.04-3.85-.04-4.58,0-.73,0-1.27,0-1.64,0-1.07-.1-1.95-.29-2.65,0-.04-.01-.08-.01-.1,0-.07.03-.11.1-.14.25-.03.62-.08,1.1-.15.72-.14,1.09-.21,1.11-.21.08,0,.13.14.16.43s.06.43.12.43c-.06,0,.12-.12.56-.36s.86-.36,1.26-.36c.25,0,.38.05.38.16,0,.13-.01.32-.04.56-.03.26-.04.45-.05.56,0,.13,0,.31,0,.53,0,.27.01.45.01.53Z"/>
      <path d="M50.92,46.17c0-.1-.02.05-.05.45-.05.51-.09,1.15-.12,1.94-.04.89-.05,1.91-.05,3.05,0,1.88.05,3.22.16,4.02,0,.09.01.14.01.16,0,.05-.03.08-.1.09-.16.02-.77.03-1.81.03-.25,0-.39-.05-.42-.14,0-.17-.02-.35-.03-.52,0-.04-.02-.07-.05-.11-.03.01-.06.04-.1.08-.49.48-1.11.72-1.85.72-.96,0-1.73-.34-2.31-1.01-.55-.64-.83-1.45-.83-2.43s.27-1.81.81-2.45c.57-.68,1.35-1.03,2.32-1.03.69,0,1.22.22,1.61.66.06.07.11.11.14.11.04,0,.06-.06.06-.18,0-.35,0-.88-.03-1.57-.02-.7-.03-1.22-.03-1.57,0-.13.04-.21.11-.23.29-.01.69-.04,1.2-.08.91-.11,1.32-.17,1.21-.17.1,0,.15.06.15.17ZM48.34,52.45c0-.36-.12-.68-.38-.95-.25-.27-.55-.41-.91-.41-.37,0-.67.14-.89.41-.22.27-.33.6-.33.97s.11.68.33.94c.23.27.52.41.89.41s.67-.14.92-.41.37-.59.37-.96Z"/>
      <path d="M59.75,43.8c0-.1-.02.05-.05.45-.05.51,1.44,3.52,1.41,4.31-.04.89-.05,1.91-.05,3.05,0,1.88.05,3.22.16,4.02,0,.09.01.14.01.16,0,.05-.03.08-.1.09-.16.02-.77.03-1.81.03-.25,0-.39-.05-.42-.14,0-.17-.02-.35-.03-.52,0-.04-.02-.07-.05-.11-.03.01-.06.04-.1.08-.49.48-1.11.72-1.85.72-.96,0-1.73-.34-2.31-1.01-.55-.64-.83-1.45-.83-2.43s.27-1.81.81-2.45c.57-.68,1.35-1.03,2.32-1.03.69,0,1.22.22,1.61.66.06.07.11.11.14.11.04,0,.06-.06.06-.18,0-.35,0-.88-.03-1.57-.02-.7-1.56-3.59-1.56-3.93,0-.13.04-.21.11-.23.29-.01.69-.04,1.2-.08.91-.11,1.31-.17,1.21-.17.1,0,.15.06.15.17ZM58.7,52.45c0-.36-.13-.68-.38-.95-.25-.27-.55-.41-.91-.41-.37,0-.67.14-.89.41-.22.27-.33.6-.33.97s.11.68.33.94c.23.27.52.41.89.41s.67-.14.92-.41.37-.59.37-.96Z"/>
      <path d="M66.12,51.61c0,.18-.1.27-.29.27-.09,0-.21,0-.38-.02-.17-.01-.29-.02-.37-.02-.38,0-.64.06-.77.18-.14.12-.21.36-.21.72,0,.2,0,.49,0,.89,0,.4.01.7.01.89,0,.13,0,.33.03.59.02.26.03.46.03.58,0,.11-.08.17-.23.18-.22.02-.55.03-1,.03s-.78-.01-1.04-.04c-.15-.02-.23-.09-.23-.23,0-.36,0-.91,0-1.64,0-.73,0-1.27,0-1.64,0-1.07-.1-1.95-.29-2.65,0-.04-.01-.08-.01-.1,0-.07.03-.11.1-.14.25-.03.62-.08,1.1-.15.72-.14,1.09-.21,1.11-.21.08,0,.13.14.16.43s.06.43.12.43c-.06,0,.12-.12.56-.36s.86-.36,1.26-.36c.25,0,.38.05.38.16,0,.13-.01.32-.04.56-.03.26-.04.45-.05.56,0,.13,0,.31,0,.53,0,.27.01.45.01.53Z"/>
      <path d="M68.75,52.73c0,.33,0,.83.02,1.49.01.66.02,1.15.02,1.48,0,.1-.06.15-.17.17-.16.03-.5.04-1.05.04s-.9-.01-1.05-.04c-.1-.02-.16-.05-.18-.09,0-.02-.01-.09-.01-.21,0-.31,0-.79.02-1.42.01-.63.02-1.11.02-1.43,0-1.29-.05-2.32-.15-3.09,0-.07-.01-.12-.01-.14,0-.09.06-.14.18-.14s.32.01.58.04c.26.03.46.04.59.04s.33-.01.59-.03c.26-.02.46-.03.59-.03.11,0,.16.05.16.14,0,.02,0,.06-.01.13-.1.89-.15,1.92-.15,3.09ZM68.93,47.66c0,.79-.45,1.19-1.34,1.19-.38,0-.7-.1-.95-.3-.27-.22-.41-.51-.41-.89s.14-.65.42-.88c.26-.21.57-.31.94-.31s.66.11.92.32c.28.23.42.52.42.87Z"/>
      <path d="M75.94,51.13c0,.78-.03,1.24-.08,1.38-.1.32-.42.87-.94,1.65-.46.67-.85,1.19-1.17,1.56-.12.14-.48.21-1.07.21-.52,0-.86-.02-1.01-.05-.1-.02-.18-.07-.24-.14-.27-.3-.66-.81-1.17-1.54-.54-.79-.87-1.33-.97-1.62-.11-.31-.17-.79-.17-1.42,0-.18,0-.45,0-.8,0-.36,0-.63,0-.81,0-.12.08-.18.24-.18.23,0,.58,0,1.05.02.47.01.82.02,1.05.02.1,0,.16.07.16.21,0,.13,0,.32-.03.58-.02.26-.03.45-.03.58,0,.47.01.86.04,1.16.01.16.15.45.4.88.26.45.45.68.57.68s.3-.22.55-.66c.24-.41.37-.7.39-.85.04-.32.05-.71.05-1.18,0-.13-.01-.33-.04-.6s-.04-.46-.04-.59c0-.14.05-.21.14-.21.11,0,.27,0,.49,0,.22,0,.38,0,.49,0s.27,0,.5-.03c.22-.02.39-.03.5-.03s.19.06.23.18c.08.26.12.79.12,1.59Z"/>
      <path d="M82.44,52.16c0,.46-.15.72-.44.79-.05,0-.52.06-1.42.15-.54.06-1.34.13-2.41.21.06.3.26.52.58.68.26.13.57.19.9.19.41,0,5.08.13,5.49-.09.17-.11.35-.22.52-.33.1.05.26.28.48.7.23.42.34.69.34.8,0,.03-.03.08-.1.16-.56.6-5.69.66-6.86.66-1.08,0-1.96-.32-2.62-.95-.68-.64-1.03-1.5-1.03-2.58s.31-1.91.92-2.58c.63-.69,1.46-1.04,2.5-1.04.88,0,1.62.32,2.23.96.61.64.92,1.4.92,2.28ZM80.04,51.74c0-.28-.1-.53-.3-.75-.2-.21-.44-.32-.72-.32s-.52.12-.71.36c-.17.22-.26.49-.26.79,0,.12.06.18.19.18.34,0,.86-.05,1.57-.16.15-.02.23-.06.23-.11Z"/>
    </g>
  </g>
  <g id="arc">
    <g>
      <polygon points="85.47 59.2 77.56 67.25 77.55 67.25 77.55 59.2 85.47 59.2"/>
      <polygon points="85.75 69.7 78.75 63.24 81.55 60.18 88.55 66.64 85.75 69.7"/>
    </g>
  </g>
</svg>